<svg width="16" height="16" viewBox="0 0 16 16" fill="none" xmlns="http://www.w3.org/2000/svg">
<path fill-rule="evenodd" clip-rule="evenodd" d="M13.4995 2H8.99951H7.00051H2.50051C1.89151 2 1.34751 2.364 1.11451 2.926C0.881513 3.489 1.00951 4.13 1.44051 4.561L5.70751 8.828C5.89651 9.017 6.00051 9.268 6.00051 9.535V12C6.00051 12.379 6.21451 12.725 6.55351 12.894L8.55251 13.894C8.69351 13.965 8.84751 14 8.99951 14C9.18251 14 9.36451 13.95 9.52551 13.851C9.82051 13.668 9.99951 13.347 9.99951 13V9.535C9.99951 9.268 10.1035 9.017 10.2925 8.828L14.5595 4.561C14.9905 4.13 15.1185 3.489 14.8855 2.926C14.6525 2.364 14.1085 2 13.4995 2ZM13.4995 3C13.7015 3 13.8845 3.122 13.9615 3.309C14.0385 3.495 13.9955 3.711 13.8525 3.854L9.58551 8.121C9.21051 8.496 8.99951 9.005 8.99951 9.535V13L7.00051 12V9.535C7.00051 9.005 6.78951 8.496 6.41451 8.121L2.14751 3.854C2.00451 3.711 1.96151 3.495 2.03851 3.309C2.11551 3.122 2.29851 3 2.50051 3H7.00051H8.99951H13.4995Z" fill="#F7F8F8"/>
</svg>
