<svg width="16" height="16" viewBox="0 0 16 16" fill="none" xmlns="http://www.w3.org/2000/svg">
<path d="M3.83728 2.50005L1.80002 2.50001C1.7947 2.50001 1.78938 2.50001 1.78407 2.50001C1.65788 2.5 1.53498 2.49998 1.4309 2.50848C1.3166 2.51782 1.18173 2.53985 1.04602 2.609C0.857855 2.70487 0.704871 2.85785 0.608996 3.04601C0.539846 3.18173 0.517811 3.3166 0.508473 3.43089C0.499969 3.53497 0.499984 3.65787 0.499999 3.78406C0.499999 3.78938 0.5 3.79469 0.5 3.80001V12.4L0.5 12.4193C0.499991 12.6828 0.499983 12.9102 0.515285 13.0975C0.531435 13.2952 0.567093 13.4918 0.66349 13.681C0.8073 13.9632 1.03677 14.1927 1.31901 14.3365C1.5082 14.4329 1.70481 14.4686 1.90249 14.4847C2.08977 14.5 2.31715 14.5 2.58072 14.5H2.6H12.4H12.4193C12.6829 14.5 12.9102 14.5 13.0975 14.4847C13.2952 14.4686 13.4918 14.4329 13.681 14.3365C13.9632 14.1927 14.1927 13.9632 14.3365 13.681C14.4329 13.4918 14.4686 13.2952 14.4847 13.0975C14.5 12.9102 14.5 12.6829 14.5 12.4193V12.4V6.60001V6.58073C14.5 6.31716 14.5 6.08978 14.4847 5.90249C14.4686 5.70482 14.4329 5.50821 14.3365 5.31902C14.1927 5.03677 13.9632 4.8073 13.681 4.66349C13.4918 4.5671 13.2952 4.53144 13.0975 4.51529C12.9102 4.49999 12.6828 4.5 12.4193 4.50001L12.4 4.50001L7.16275 4.50006C6.89435 4.50006 6.84165 4.49684 6.79749 4.48624C6.74647 4.474 6.6977 4.45379 6.65296 4.42638C6.61424 4.40265 6.5747 4.36766 6.38492 4.17787L5.32217 3.11513C5.31227 3.10523 5.30246 3.0954 5.29273 3.08565C5.14901 2.94166 5.0223 2.81471 4.86953 2.7211C4.73533 2.63886 4.58902 2.57825 4.43597 2.5415C4.26175 2.49967 4.08238 2.49984 3.87894 2.50002C3.86516 2.50004 3.85128 2.50005 3.83728 2.50005Z" stroke="#F7F8F8"/>
</svg>
