<svg width="10" height="2" viewBox="0 0 10 2" fill="none" xmlns="http://www.w3.org/2000/svg">
<path d="M1 0C1.28571 0.00590474 1.52229 0.102667 1.70971 0.290286C1.89714 0.477905 1.9939 0.714474 2 1C1.9941 1.28571 1.89733 1.52229 1.70971 1.70971C1.5221 1.89714 1.28553 1.9939 1 2C0.714286 1.9941 0.477714 1.89733 0.290286 1.70971C0.102857 1.5221 0.00609725 1.28553 0 1C0.00590297 0.714286 0.102668 0.477714 0.290286 0.290286C0.477903 0.102857 0.714474 0.00609526 1 0ZM5 0C5.28571 0.00590474 5.52229 0.102667 5.70971 0.290286C5.89714 0.477905 5.9939 0.714474 6 1C5.9941 1.28571 5.89733 1.52229 5.70971 1.70971C5.5221 1.89714 5.28553 1.9939 5 2C4.71429 1.9941 4.47771 1.89733 4.29029 1.70971C4.10286 1.5221 4.0061 1.28553 4 1C4.0059 0.714286 4.10267 0.477714 4.29029 0.290286C4.4779 0.102857 4.71447 0.00609526 5 0ZM9 0C9.28571 0.00590474 9.52229 0.102667 9.70971 0.290286C9.89714 0.477905 9.9939 0.714474 10 1C9.9941 1.28571 9.89733 1.52229 9.70971 1.70971C9.5221 1.89714 9.28553 1.9939 9 2C8.71429 1.9941 8.47771 1.89733 8.29029 1.70971C8.10286 1.5221 8.0061 1.28553 8 1C8.0059 0.714286 8.10267 0.477714 8.29029 0.290286C8.4779 0.102857 8.71447 0.00609526 9 0Z" fill="#BDBEC0"/>
</svg>
