<svg width="16" height="16" viewBox="0 0 16 16" fill="none" xmlns="http://www.w3.org/2000/svg">
<path fill-rule="evenodd" clip-rule="evenodd" d="M3.8373 1.00019L1.80004 1.00015L1.77691 1.00015L1.7769 1.00015C1.65779 1.0001 1.51553 1.00004 1.39021 1.01028C1.24499 1.02214 1.03699 1.05258 0.819043 1.16363C0.536795 1.30744 0.307319 1.53691 0.163506 1.81916C0.0524544 2.0371 0.0220104 2.2451 0.0101455 2.39032C-9.37238e-05 2.51564 -3.93644e-05 2.6579 6.17358e-06 2.77701L1.2134e-05 2.80015V11.4001L9.51144e-06 11.432L9.50983e-06 11.4321C-2.04111e-05 11.6844 -4.95493e-05 11.9302 0.0169574 12.1384C0.0356342 12.367 0.0797018 12.6367 0.217999 12.9081C0.409746 13.2844 0.715707 13.5904 1.09203 13.7822C1.36345 13.9205 1.63319 13.9645 1.86178 13.9832C2.06994 14.0002 2.31572 14.0002 2.5681 14.0001H2.56813L2.60001 14.0001H13.2L13.2231 14.0001H13.2232C13.2542 14.0002 13.2868 14.0002 13.3203 14H10V13.0001H2.60001C2.03996 13.0001 1.75993 13.0001 1.54602 12.8911C1.35786 12.7953 1.20488 12.6423 1.10901 12.4541C1.00001 12.2402 1.00001 11.9602 1.00001 11.4001V2.80015C1.00001 2.52012 1.00001 2.38011 1.05451 2.27315C1.10245 2.17907 1.17894 2.10258 1.27302 2.05464C1.37998 2.00015 1.52 2.00015 1.80003 2.00015L3.83729 2.00019C4.08187 2.00019 4.20416 2.0002 4.31925 2.02783C4.42128 2.05232 4.51882 2.09273 4.60829 2.14756C4.70921 2.2094 4.79568 2.29587 4.96863 2.46882L6.03138 3.53157L6.03139 3.53157C6.20433 3.70452 6.29081 3.791 6.39173 3.85284C6.4812 3.90767 6.57874 3.94807 6.68078 3.97257C6.79587 4.0002 6.91817 4.0002 7.16276 4.0002L12.4 4.00015C12.9601 4.00015 13.2401 4.00015 13.454 4.10914C13.6422 4.20501 13.7951 4.35799 13.891 4.54616C14 4.76007 14 5.0401 14 5.60015V6H15V12.2812C15 12.2614 15 12.2421 15 12.2233L15 12.2001V5.60015L15 5.56827C15 5.31588 15.0001 5.07008 14.9831 4.86192C14.9644 4.63332 14.9203 4.36359 14.782 4.09216C14.5903 3.71584 14.2843 3.40988 13.908 3.21813C13.6366 3.07983 13.3668 3.03577 13.1382 3.01709C12.9301 3.00009 12.6843 3.00012 12.4319 3.00015L12.4 3.00015L7.16275 3.0002C7.03175 3.0002 6.96637 2.99996 6.91888 2.99779L6.91529 2.99762L6.91263 2.9952C6.87752 2.96316 6.83112 2.91709 6.73849 2.82446L5.67574 1.76171L5.63971 1.72556C5.50578 1.59091 5.33715 1.42137 5.1308 1.29492C4.95186 1.18526 4.75677 1.10445 4.55271 1.05546C4.31738 0.99896 4.07825 0.999594 3.88834 1.0001L3.88834 1.0001L3.8373 1.00019Z" fill="#F7F8F8"/>
<path fill-rule="evenodd" clip-rule="evenodd" d="M12 9.5C12 8.67157 12.6716 8 13.5 8C14.3284 8 15 8.67157 15 9.5C15 10.0671 14.6854 10.5615 14.2189 10.8169C13.9426 10.9682 13.6487 11.176 13.4183 11.4446C13.1857 11.7158 13 12.0717 13 12.5C13 12.7761 13.2239 13 13.5 13C13.7761 13 14 12.7761 14 12.5C14 12.376 14.0516 12.2423 14.1774 12.0956C14.3053 11.9464 14.4909 11.8081 14.6991 11.6941C15.4732 11.2703 16 10.447 16 9.5C16 8.11929 14.8807 7 13.5 7C12.1193 7 11 8.11929 11 9.5C11 9.77614 11.2239 10 11.5 10C11.7761 10 12 9.77614 12 9.5ZM13.5 15C13.7761 15 14 14.7761 14 14.5C14 14.2239 13.7761 14 13.5 14C13.2239 14 13 14.2239 13 14.5C13 14.7761 13.2239 15 13.5 15Z" fill="#F7F8F8"/>
</svg>
