<svg width="16" height="16" viewBox="0 0 16 16" fill="none" xmlns="http://www.w3.org/2000/svg">
<path d="M4.8 1.5H10.2C11.0483 1.5 11.6545 1.50039 12.1297 1.53921C12.599 1.57756 12.8963 1.65089 13.135 1.77248C13.6054 2.01217 13.9878 2.39462 14.2275 2.86502C14.3491 3.10366 14.4224 3.40099 14.4608 3.87032C14.4996 4.34549 14.5 4.95167 14.5 5.8V10.2C14.5 11.0483 14.4996 11.6545 14.4608 12.1297C14.4224 12.599 14.3491 12.8963 14.2275 13.135C13.9878 13.6054 13.6054 13.9878 13.135 14.2275C12.8963 14.3491 12.599 14.4224 12.1297 14.4608C11.6545 14.4996 11.0483 14.5 10.2 14.5H4.8C3.95167 14.5 3.34549 14.4996 2.87032 14.4608C2.40099 14.4224 2.10366 14.3491 1.86502 14.2275C1.39462 13.9878 1.01217 13.6054 0.772484 13.135C0.650894 12.8963 0.577558 12.599 0.539212 12.1297C0.500389 11.6545 0.5 11.0483 0.5 10.2V5.8C0.5 4.95167 0.500389 4.34549 0.539212 3.87032C0.577558 3.40099 0.650894 3.10366 0.772484 2.86502C1.01217 2.39462 1.39462 2.01217 1.86502 1.77248C2.10366 1.65089 2.40099 1.57756 2.87032 1.53921C3.34549 1.50039 3.95167 1.5 4.8 1.5Z" stroke="#F7F8F8"/>
<path d="M1 8.5H2.7506C3.02606 8.5 3.1638 8.5 3.29143 8.53434C3.40451 8.56476 3.51138 8.61481 3.60715 8.68221C3.71523 8.75828 3.80341 8.86409 3.97975 9.0757L5.52025 10.9243C5.69659 11.1359 5.78477 11.2417 5.89285 11.3178C5.98862 11.3852 6.09549 11.4352 6.20857 11.4657C6.3362 11.5 6.47394 11.5 6.7494 11.5H8.2506C8.52606 11.5 8.6638 11.5 8.79143 11.4657C8.90451 11.4352 9.01138 11.3852 9.10715 11.3178C9.21523 11.2417 9.30341 11.1359 9.47975 10.9243L11.0202 9.0757C11.1966 8.86409 11.2848 8.75828 11.3929 8.68221C11.4886 8.61481 11.5955 8.56476 11.7086 8.53434C11.8362 8.5 11.9739 8.5 12.2494 8.5H14" stroke="#F7F8F8" stroke-linecap="round" stroke-linejoin="round"/>
</svg>
