<svg width="14" height="14" viewBox="0 0 14 14" fill="none" xmlns="http://www.w3.org/2000/svg">
<path d="M9.01098 0.789777C8.82098 0.599923 8.57098 0.5 8.30098 0.5C8.24098 0.5 8.17098 0.5 8.11098 0.519985C7.78098 0.579939 7.51098 0.799769 7.38098 1.10953L5.99098 4.33705C5.86098 4.63682 5.59098 4.85665 5.27098 4.92659L3.30098 5.3163C2.94098 5.38624 2.65098 5.65603 2.54098 6.00576C2.43098 6.3555 2.53098 6.7452 2.79098 7.005L4.54098 8.75365L0.650977 12.6407C0.450977 12.8405 0.450977 13.1503 0.650977 13.3501C0.750977 13.45 0.880977 13.5 1.00098 13.5C1.12098 13.5 1.26098 13.45 1.35098 13.3501L5.24098 9.46311L6.99098 11.2118C7.18098 11.4016 7.44098 11.5015 7.70098 11.5015C7.80098 11.5015 7.89098 11.4915 7.99098 11.4616C8.34098 11.3517 8.61098 11.0619 8.68098 10.7022L9.07098 8.73367C9.13098 8.41391 9.35098 8.14412 9.66098 8.01422L12.891 6.62529C13.191 6.49539 13.421 6.2256 13.481 5.89585C13.541 5.5661 13.441 5.23636 13.211 4.99654L9.01098 0.789777ZM9.27098 7.07494C8.66098 7.33474 8.23098 7.87433 8.10098 8.52383L7.71098 10.4923L3.50098 6.29554L5.47098 5.90584C6.12098 5.77594 6.66098 5.33628 6.92098 4.73674L8.31098 1.50922L12.511 5.706L9.27098 7.07494Z" fill="#F7F8F8"/>
</svg>
