<svg width="12" height="12" viewBox="0 0 12 12" fill="none" xmlns="http://www.w3.org/2000/svg">
<path d="M0 0.999998V3.5C0 3.8 0.2 4 0.5 4H3C3.3 4 3.4 3.7 3.2 3.5L0.5 0.699998C0.3 0.599998 0 0.699998 0 0.999998Z" fill="#DADADF"/>
<path d="M12.0001 11V8.5C12.0001 8.2 11.8001 8 11.5001 8H9.0001C8.7001 8 8.6001 8.3 8.7001 8.5L11.5001 11.3C11.7001 11.4 12.0001 11.3 12.0001 11Z" fill="#DADADF"/>
<path d="M10.5 9.2C9.5 10.6 7.9 11.5 6 11.5C3.2 11.5 0.8 9.4 0.5 6.6" stroke="#DADADF" stroke-miterlimit="10" stroke-linecap="round"/>
<path d="M1.6001 2.8C2.6001 1.4 4.2001 0.5 6.0001 0.5C8.8001 0.5 11.1001 2.6 11.5001 5.3" stroke="#DADADF" stroke-miterlimit="10" stroke-linecap="round"/>
</svg>
