<svg width="14" height="14" viewBox="0 0 14 14" fill="none" xmlns="http://www.w3.org/2000/svg">
<path d="M6 0C9.31348 0 12 2.68652 12 6C12 7.29873 11.5873 8.502 10.8857 9.48438L12.8516 11.4307C13.0513 11.6309 13.0513 11.9414 12.8516 12.1406L12.1416 12.8506C11.9414 13.0508 11.6323 13.0508 11.4326 12.8506L9.47461 10.8926C8.49414 11.5898 7.29492 12 6 12C2.68652 12 0 9.31348 0 6C0 2.68652 2.68652 0 6 0ZM6 1C3.23858 1 1 3.23858 1 6C1 8.76142 3.23858 11 6 11C8.76142 11 11 8.76142 11 6C11 3.23858 8.76142 1 6 1Z" fill="#F7F8F8"/>
</svg>
